# xmcd
#
# Track frame offsets:
#	150
#	22131
#	49211
#	71145
#	94600
#	120779
#	143440
#	161668
#	174723
#	186183
#	208818
#	226323
#
# Disc length: 3193 seconds
#
# Revision: 0
# Processed by: cddbd v1.5.2PL0 Copyright (c) Steve Scherf et al.
# Submitted via: dBpowerAMP V4.0
#
DISCID=a40c770c
DTITLE=Coletânia de Hinos SBB - Louvor Brasil Memória II
DYEAR=2007
DGENRE=Gospel
TTITLE0=Canto o Novo Canto da Terra
TTITLE1=Liturgia Sertaneja
TTITLE2=Barnabé - Homem de Deus
TTITLE3=pra Cima Brasil
TTITLE4=Pai Nosso
TTITLE5=Estrela de Belém
TTITLE6=Primavera
TTITLE7=Deus também é Nordestino
TTITLE8=Credo
TTITLE9=papai Querido
TTITLE10=Uma Canção feminina
TTITLE11=Há Cem Anos Trabalhando
EXTD=
EXTT0=
EXTT1=
EXTT2=
EXTT3=
EXTT4=
EXTT5=
EXTT6=
EXTT7=
EXTT8=
EXTT9=
EXTT10=
EXTT11=
PLAYORDER=
